<svg xmlns="http://www.w3.org/2000/svg" viewBox="0 0 300 300" width="300" height="300">
  <path fill="#FF6F42" d="M150,0 C232.842712,0 300,67.1572875 300,150 C300,232.842712 232.842712,300 150,300 C67.1572875,300 0,232.842712 0,150 C0,67.1572875 67.1572875,0 150,0 Z M150,25 C125,25 100,50 100,75 C100,90 110,100 125,100 L175,100 C190,100 200,90 200,75 C200,50 175,25 150,25 Z M75,100 C50,100 25,125 25,150 C25,175 50,200 75,200 C90,200 100,190 100,175 L100,125 C100,110 90,100 75,100 Z M225,100 C210,100 200,110 200,125 L200,175 C200,190 210,200 225,200 C250,200 275,175 275,150 C275,125 250,100 225,100 Z M150,200 C175,200 200,225 200,250 C200,265 190,275 175,275 L125,275 C110,275 100,265 100,250 C100,225 125,200 150,200 Z" transform="scale(1)"/>
  
  <path fill="#FF6F42" d="M150,150 m-135,-35 a35,35 0 1,0 70,0 a35,35 0 1,0 -70,0 M150,150 m-35,-135 a35,35 0 1,0 70,0 a35,35 0 1,0 -70,0 M150,150 m65,-35 a35,35 0 1,0 70,0 a35,35 0 1,0 -70,0 M150,150 m-35,65 a35,35 0 1,0 70,0 a35,35 0 1,0 -70,0"/>
  
  <g transform="translate(0,0)">
     <path fill="#FF6F42" d="M150,30 C120,30 90,60 90,90 C90,115 110,130 130,130 L130,130 L170,130 C190,130 210,115 210,90 C210,60 180,30 150,30 z M60,110 C30,110 0,140 0,170 C0,195 20,210 40,210 L40,210 L40,170 L40,130 L80,130 L80,170 L80,210 C100,210 120,195 120,170 C120,140 90,110 60,110 z M240,110 C210,110 180,140 180,170 C180,195 200,210 220,210 L220,210 L260,210 L260,170 L260,130 L220,130 L220,170 L220,210 L220,210 C240,210 260,195 260,170 C260,140 230,110 200,110 z M150,270 C180,270 210,240 210,210 C210,185 190,170 170,170 L170,170 L130,170 C110,170 90,185 90,210 C90,240 120,270 150,270 z M150,150 L150,50 L50,50 L50,150 L150,150 z" style="fill-rule:evenodd;"/>
     
     <path fill="#FF6F42" d="M150,0 L150,0 C191.42,0 225,33.58 225,75 C225,93.45 218.33,110.32 207.25,123.25 L225,123.25 C266.42,123.25 300,156.83 300,198.25 C300,239.67 266.42,273.25 225,273.25 L225,273.25 L75,273.25 C33.58,273.25 0,239.67 0,198.25 C0,156.83 33.58,123.25 75,123.25 L92.75,123.25 C81.67,110.32 75,93.45 75,75 C75,33.58 108.58,0 150,0 Z M150,25 C122.39,25 100,47.39 100,75 C100,102.61 122.39,125 150,125 C177.61,125 200,102.61 200,75 C200,47.39 177.61,25 150,25 Z M75,148.25 C47.39,148.25 25,170.64 25,198.25 C25,225.86 47.39,248.25 75,248.25 L225,248.25 C252.61,248.25 275,225.86 275,198.25 C275,170.64 252.61,148.25 225,148.25 L75,148.25 Z" fill-rule="evenodd" />
  </g>
</svg>
